<svg id="Capa_1" enable-background="new 0 0 510 510" height="512" viewBox="0 0 510 510" width="512" xmlns="http://www.w3.org/2000/svg"><path d="m339.37 97.44c25.906-46.31-19.212-97.44-84.37-97.44-66.025 0-110.117 51.859-84.24 97.67zm-49.96-45.69c0-8.28 6.72-15 15-15 8.29 0 15 6.72 15 15v2.89c0 8.29-6.71 15-15 15-8.28 0-15-6.71-15-15zm-49.41-22.83c0-8.28 6.72-15 15-15s15 6.72 15 15v2.89c0 8.29-6.72 15-15 15s-15-6.71-15-15zm-49.41 22.83c0-8.28 6.71-15 15-15 8.28 0 15 6.72 15 15v2.89c0 8.29-6.72 15-15 15-8.29 0-15-6.71-15-15z"/><path d="m375.55 465.8-51.36-264.1h-138.38l-51.36 264.1c-4.46 22.87 13.06 44.2 36.43 44.2h168.24c23.39 0 40.89-21.34 36.43-44.2zm-134.82-181.45-10.57 117c-.71 7.79-7.25 13.65-14.92 13.65-.46 0-.91-.02-1.37-.06-8.25-.75-14.34-8.04-13.59-16.29l10.57-117c.75-8.25 8.05-14.34 16.29-13.59 8.25.75 14.33 8.04 13.59 16.29zm55.4 130.59c-.46.04-.91.06-1.37.06-7.67 0-14.21-5.86-14.92-13.65l-10.57-117c-.74-8.25 5.34-15.54 13.59-16.29 8.26-.74 15.55 5.34 16.29 13.59l10.57 117c.75 8.25-5.34 15.54-13.59 16.29z"/><path d="m333.03 126.97c-4.556 0-147.713 0-154.52 0-7.192 0-12.92 5.867-12.92 12.93v18.87c0 7.173 5.842 12.93 12.92 12.93h154.52c7.124 0 12.92-5.796 12.92-12.93 0-9.455 0-11.941 0-18.87 0-7.14-5.804-12.93-12.92-12.93z"/></svg>